<?xml version="1.0" encoding="UTF-8"?>
<svg id="Layer_2" data-name="Layer 2" xmlns="http://www.w3.org/2000/svg" viewBox="0 0 39.08 65.13">
  <defs>
    <style>
      .cls-1 {
        fill: #452c12;
        stroke-width: 0px;
      }
    </style>
  </defs>
  <g id="Layer_1-2" data-name="Layer 1">
    <path class="cls-1" d="m21.75,24.62c-1.99.67-3.66,1.18-5.03,2.31-.39.32-.64.92-.78,1.45-1.04,3.84-2.02,7.69-3.05,11.53-.67,2.48-1.98,4.58-3.89,6.29-2.48,2.22-5.73,1.72-7.64-.99-2.61-3.71-1.09-8.06,1.29-10.3,3.25-3.07,6.89-5.55,10.67-7.85.92-.56,1.38-1.26,1.54-2.29.29-1.85.72-3.68.94-5.53.6-4.98,2.13-9.74,3.34-14.57.29-1.15.38-2.35.57-3.53.09-.57.18-1.2.97-1.13.69.06.96.59.96,1.2,0,.5-.1,1.01-.22,1.5-.98,3.91-2.05,7.8-2.92,11.74-.73,3.31-1.22,6.67-1.85,10.2,1.1-.13,1.89-.68,2.71-1.07,3.8-1.82,3.11-.85,4.31-5.03.98-3.45,2.14-6.83,3.84-10,.51-.95,1.04-1.89,1.67-2.76,1.69-2.34,4.29-3.25,7.05-2.53,1.71.45,3.13,2.74,2.79,4.76-.16.93-.53,1.86-.97,2.7-2.85,5.36-7.31,9.07-12.51,11.94-1.26.7-1.94,1.56-2.29,2.93-.88,3.45-1.88,6.87-2.95,10.71.53-.52.82-.75,1.04-1.03.72-.93,1.67-1.49,2.74-1.94.88-.37,1.73-.84,2.54-1.36,1.46-.93,3.03-1.3,4.72-1.01,1,.17,2.01.42,2.96.78,1.56.59,2.44,1.8,2.75,3.42.43,2.28.01,4.44-1.15,6.4-.98,1.66-2.02,3.3-3.24,4.79-.8.98-1.85,1.9-2.98,2.45-1.51.74-3.17,1.25-4.83,1.59-1.96.4-3.7-.33-5.12-1.72-.72-.71-1.39-1.47-2.25-2.39-.2.55-.38.92-.48,1.31-1.35,4.99-2.68,9.98-4.05,14.97-.23.85-.63,1.65-.99,2.56-1.1-.49-.96-1.21-.76-1.92.6-2.19,1.25-4.37,1.83-6.57.67-2.5,1.26-5.03,1.93-7.53,1.43-5.38,2.86-10.76,4.36-16.12.64-2.29,1.43-4.54,2.14-6.82.11-.36.14-.75.28-1.55Zm12.99,14.43c.1-.47.24-.96.32-1.47.31-2.19-.76-4.02-2.89-4.56-1.01-.26-2.25-.43-3.17-.07-2.03.79-4.09,1.71-5.84,2.99-2.1,1.54-3.33,3.86-3.87,6.44-.63,2.99,1.64,6.12,4.61,6.13,2.67.01,5.21-.75,7.07-2.82,1.72-1.91,3-4.12,3.78-6.63Zm-20.97-9.78c-.16-.08-.31-.16-.47-.24-2.61,1.88-5.26,3.72-7.82,5.67-.89.68-1.62,1.59-2.3,2.48-1.33,1.74-1.67,3.71-.92,5.79,1,2.8,3.73,3.48,5.96,1.52,1.46-1.28,2.29-2.94,2.81-4.77.86-3,1.69-6.01,2.51-9.02.13-.46.15-.96.23-1.44Zm11.17-8.47c.35-.02.48.02.56-.03,3.24-2.02,6.29-4.28,8.65-7.3,1.04-1.33,1.86-2.84,2.66-4.33.58-1.1.67-2.33-.21-3.36-.83-.99-2-.97-3.14-.75-1.61.3-2.74,1.3-3.56,2.66-2.42,4.03-3.75,8.46-4.96,13.12Z"/>
  </g>
</svg>